<svg xmlns="http://www.w3.org/2000/svg" width="512" height="512" viewBox="0 0 512 512">
  <defs>
    <linearGradient id="g" x1="0" y1="0" x2="1" y2="1">
      <stop offset="0" stop-color="#7c3aed"/>
      <stop offset="1" stop-color="#22c55e"/>
    </linearGradient>
  </defs>
  <rect x="64" y="64" width="384" height="384" rx="96" fill="#0f0f10"/>
  <circle cx="256" cy="256" r="136" fill="url(#g)" opacity="0.95"/>
  <path d="M220 198c0-14 11-26 26-26h20c14 0 26 12 26 26v18c0 9-5 18-13 22l-19 10 19 10c8 4 13 13 13 22v18c0 14-12 26-26 26h-20c-15 0-26-12-26-26" fill="none" stroke="#0f0f10" stroke-width="20" stroke-linecap="round"/>
</svg>
